<svg width="40" height="40" viewBox="0 0 40 40" fill="none" xmlns="http://www.w3.org/2000/svg">
<path d="M23.5516 0C23.2632 0 22.9949 0.0619092 22.7466 0.14557C23.2732 0.496946 23.5632 0.965448 23.7066 1.49419C23.7182 1.56613 23.7382 1.618 23.7482 1.68995C23.7606 1.75171 23.7678 1.81439 23.7699 1.87735C23.8099 2.78926 23.5316 2.90471 23.3366 3.44349C23.0366 4.13787 23.1199 4.88413 23.4799 5.48482C23.5129 5.56537 23.5542 5.6422 23.6032 5.71405C23.2116 3.09044 25.3915 2.69723 25.7932 1.87735C25.8249 1.16121 25.2365 0.684347 24.7715 0.353049C24.4061 0.122528 23.9831 0.000695627 23.5516 0.00167322V0ZM26.8365 0.590647C26.7965 0.829917 26.8265 0.768008 26.8165 0.891826C26.8065 0.975487 26.8065 1.07923 26.7965 1.16121C26.7749 1.24488 26.7549 1.32854 26.7232 1.41052C26.7032 1.49419 26.6732 1.57785 26.6399 1.65983L26.5282 1.89743C26.4949 1.93926 26.4765 1.98109 26.4449 2.02292L26.3832 2.11495C26.334 2.18596 26.2823 2.25516 26.2282 2.32243C26.1665 2.38601 26.1149 2.45796 26.0415 2.50983V2.51987C25.9799 2.57174 25.9182 2.63365 25.8449 2.68719C25.6282 2.85284 25.3815 2.97666 25.1532 3.13227C25.0815 3.18247 25.0082 3.22597 24.9465 3.28788C24.8764 3.33739 24.8106 3.39281 24.7499 3.45353C24.6782 3.51544 24.6265 3.57735 24.5649 3.65097C24.5132 3.71288 24.4515 3.78482 24.4099 3.85845C24.358 3.92851 24.3096 4.0011 24.2649 4.07596C24.2232 4.15963 24.1932 4.23157 24.1516 4.31356C24.1199 4.39722 24.0899 4.46917 24.0682 4.55283C24.0409 4.63829 24.017 4.72481 23.9965 4.81218C23.9866 4.85401 23.9866 4.90588 23.9766 4.94604C23.9649 4.98787 23.9649 5.0297 23.9549 5.07153C23.9549 5.15519 23.9449 5.24722 23.9449 5.33088C23.9449 5.39279 23.9449 5.4547 23.9549 5.51661C23.9549 5.60027 23.9649 5.68393 23.9866 5.77596C23.9966 5.85962 24.0166 5.94328 24.0366 6.02694C24.0699 6.10893 24.0899 6.19092 24.1199 6.27458C24.1416 6.32477 24.1715 6.37832 24.1932 6.42015L21.8166 5.49653C21.4149 5.38275 21.0216 5.27901 20.6182 5.18531L19.9682 5.0297C19.3483 4.90588 18.7183 4.81218 18.0883 4.75027C18.0666 4.75027 18.0566 4.74023 18.0366 4.74023C16.972 4.63317 15.9002 4.61918 14.8333 4.6984C14.2033 4.74023 13.5733 4.82222 12.9433 4.92596C12.4751 5.00695 12.0098 5.10405 11.5483 5.2171L11.0833 5.34092C10.93 5.40283 10.7833 5.47478 10.64 5.53836L10.2983 5.69397C10.2783 5.70401 10.2583 5.70401 10.2483 5.71405C10.1433 5.76592 10.0517 5.80775 9.95832 5.85962C9.82413 5.91905 9.69286 5.98494 9.56499 6.05706C9.49332 6.08718 9.42166 6.12901 9.35833 6.1608C9.32873 6.17924 9.29813 6.196 9.26666 6.21099C9.17333 6.26454 9.07999 6.31641 8.99666 6.36828C8.91161 6.41548 8.82926 6.46743 8.75 6.52389C8.67666 6.57408 8.605 6.61591 8.54333 6.66778C8.53333 6.6795 8.52167 6.6795 8.51167 6.68954C8.45 6.73137 8.37833 6.78324 8.315 6.83511L8.295 6.85518L8.14 6.979C8.12 6.99071 8.09834 7.01079 8.07834 7.02083C8.02667 7.06266 7.975 7.11453 7.92334 7.15469C7.91334 7.17644 7.89167 7.18815 7.88167 7.19652C7.82 7.2601 7.75834 7.31197 7.69667 7.37388C7.68501 7.37388 7.68501 7.38392 7.675 7.39396C7.61077 7.45032 7.54905 7.5095 7.49001 7.57132C7.47834 7.58136 7.47834 7.5914 7.46834 7.5914C7.41409 7.64471 7.36237 7.70054 7.31334 7.75872C7.29334 7.7788 7.26334 7.79888 7.24167 7.81896C7.18633 7.8847 7.12735 7.94726 7.06501 8.00636C7.05501 8.02644 7.03501 8.03815 7.02501 8.05656C6.94168 8.14022 6.87001 8.22388 6.78668 8.30754L6.75668 8.33766C6.59001 8.51502 6.41501 8.69071 6.22835 8.84632C6.04335 9.01364 5.84669 9.16757 5.65002 9.3031C5.25515 9.58627 4.82899 9.82265 4.38003 10.0075C4.16336 10.1012 3.93503 10.1849 3.70837 10.2568C3.27504 10.3505 2.83004 10.5262 2.44838 10.558C2.36504 10.558 2.27338 10.5781 2.19005 10.5881L1.93171 10.65L1.68338 10.7437C1.60005 10.7755 1.51838 10.8174 1.43672 10.8575C1.36339 10.9094 1.28172 10.9512 1.20839 11.0031C1.13485 11.0565 1.06574 11.1158 1.00172 11.1805C0.930055 11.2307 0.856723 11.3043 0.795056 11.3662C0.73339 11.4381 0.671724 11.5 0.620058 11.5737C0.568392 11.6573 0.506725 11.7293 0.465059 11.8129C0.410772 11.8883 0.362298 11.9677 0.32006 12.0505C0.278394 12.1442 0.236727 12.2279 0.206727 12.3199C0.175061 12.4036 0.145061 12.4973 0.113395 12.5893C0.093395 12.673 0.0717285 12.7566 0.0633952 12.8403C0.0633952 12.8487 0.0517286 12.8604 0.0517286 12.8704C0.0317288 12.9641 0.0317288 13.0879 0.0200622 13.1498C0.0100623 13.2235 6.23232e-05 13.2837 6.23232e-05 13.3573C-0.00185519 13.5378 0.0405018 13.7159 0.123395 13.876V13.8861C0.155061 13.948 0.196728 14.0115 0.238394 14.0735C0.278394 14.1354 0.321727 14.1973 0.371726 14.2592C0.423393 14.3111 0.485059 14.3746 0.548392 14.4265C0.608614 14.4872 0.673847 14.5426 0.74339 14.5922C0.991722 14.8097 1.05339 14.8816 1.37339 15.0473C1.42505 15.0791 1.47672 15.0991 1.54005 15.1309C1.55005 15.1309 1.56005 15.141 1.57005 15.141C1.57005 15.1627 1.57005 15.1728 1.58005 15.1928C1.60418 15.3639 1.64895 15.5313 1.71338 15.6915C1.74672 15.7534 1.76672 15.8153 1.79672 15.8772C1.80838 15.8989 1.81838 15.919 1.83005 15.9291C1.87005 16.0127 1.91171 16.0847 1.95171 16.1583L2.10671 16.3758C2.15838 16.4377 2.22171 16.5097 2.28338 16.5732C2.34505 16.6352 2.40671 16.687 2.48004 16.7489C2.48004 16.7489 2.49004 16.759 2.50004 16.759C2.56171 16.8108 2.62338 16.8627 2.68671 16.9045C2.75858 16.9552 2.83438 16.9999 2.91337 17.0384C2.98504 17.0802 3.06837 17.1221 3.15004 17.1539C3.21664 17.184 3.2858 17.2081 3.3567 17.2258C3.36837 17.2358 3.37837 17.2358 3.39837 17.2459C3.44004 17.2576 3.4917 17.2676 3.5317 17.2777C3.5017 17.8382 3.4917 18.3653 3.57504 18.5527C3.6667 18.7601 4.1217 18.1277 4.57503 17.4015C4.51503 18.1176 4.47336 18.9576 4.57503 19.2069C4.69003 19.4662 5.30836 18.6564 5.84669 17.7646C13.1716 16.0646 19.8549 21.1445 20.5566 28.3226C20.4232 27.2015 19.0483 26.5808 18.4183 26.7364C18.1083 27.5027 17.5816 28.4882 16.7349 29.1006C16.8066 28.4146 16.7766 27.7119 16.6316 27.0259C16.4002 27.9808 15.9627 28.873 15.3499 29.6394C14.37 29.7114 13.3883 29.2345 12.8716 28.5184C12.83 28.4882 12.82 28.4263 12.7883 28.3845C12.7583 28.3126 12.7266 28.2389 12.705 28.167C12.675 28.0975 12.6542 28.0244 12.6433 27.9495C12.6333 27.8758 12.6333 27.8039 12.6333 27.7202V27.5646C12.6456 27.491 12.6629 27.4184 12.685 27.3471C12.7066 27.2752 12.7266 27.2032 12.7583 27.1296C12.7983 27.0576 12.83 26.984 12.8816 26.9121C13.0566 26.4135 13.0566 26.0085 12.7366 25.7709C12.6745 25.7302 12.6086 25.6955 12.54 25.6672C12.5 25.6572 12.4483 25.6371 12.4066 25.6254L12.3233 25.5953C12.2526 25.5723 12.1801 25.5549 12.1066 25.5434C12.0362 25.5227 11.9633 25.512 11.89 25.5116C11.815 25.4998 11.7392 25.4931 11.6633 25.4915C11.6116 25.4915 11.56 25.5016 11.5083 25.5016C11.4311 25.5011 11.3542 25.5118 11.28 25.5333C11.2083 25.5434 11.1366 25.5534 11.0633 25.5735C10.9896 25.5934 10.9172 25.6179 10.8466 25.6471C10.775 25.6772 10.7133 25.709 10.64 25.7408C10.5783 25.7709 10.5167 25.8128 10.4433 25.8446C8.03667 27.4207 9.47333 31.1119 11.115 32.181C10.495 32.2948 9.86499 32.4287 9.68999 32.5642L9.66832 32.5843C10.1133 32.8537 10.5783 33.0829 11.0633 33.2803C11.725 33.4979 12.4266 33.6936 12.7366 33.7773V33.7873C13.5925 33.9638 14.4677 34.0268 15.3399 33.9747C19.9166 33.6535 23.6666 30.1581 24.3482 25.5534L24.4099 25.8228C24.4415 26.0102 24.4815 26.2076 24.5032 26.4034V26.4135C24.5232 26.5072 24.5332 26.6009 24.5449 26.6845V26.7247C24.5549 26.8184 24.5649 26.9121 24.5649 26.9957C24.5749 27.1095 24.5849 27.2233 24.5849 27.3371V27.5044C24.5849 27.5546 24.5965 27.6165 24.5965 27.6684C24.5965 27.732 24.5849 27.7939 24.5849 27.8558V28.0013C24.5849 28.0733 24.5749 28.1352 24.5749 28.2088C24.5749 28.2507 24.5749 28.2925 24.5649 28.3427C24.5649 28.4163 24.5549 28.4882 24.5549 28.5719C24.5449 28.602 24.5449 28.6338 24.5449 28.6639L24.5115 28.9032C24.5115 28.935 24.5115 28.9651 24.5032 28.9969C24.4915 29.1006 24.4715 29.1943 24.4615 29.2981V29.3182L24.3999 29.6093V29.6394L24.3382 29.9188C24.3382 29.9306 24.3265 29.9523 24.3265 29.9607C24.3075 30.0556 24.2836 30.1494 24.2549 30.2418V30.2719C24.2232 30.3756 24.1932 30.4693 24.1716 30.563C24.1616 30.5731 24.1615 30.5831 24.1615 30.5831L24.0682 30.8943C24.0282 30.9981 23.9966 31.0918 23.9549 31.1955C23.9132 31.2993 23.8832 31.403 23.8416 31.4967C23.7999 31.6004 23.7582 31.6925 23.7182 31.7979H23.7066C23.6666 31.8899 23.6232 31.9936 23.5732 32.0873C23.5645 32.1121 23.554 32.1362 23.5416 32.1593C23.5316 32.1693 23.5316 32.181 23.5216 32.1911C22.8384 33.5642 21.844 34.7573 20.6182 35.6747C20.5349 35.7266 20.4532 35.7902 20.3699 35.8521C20.3499 35.8722 20.3199 35.8822 20.2982 35.9023C20.2244 35.9571 20.1488 36.0096 20.0716 36.0596L20.1016 36.1215H20.1132L20.5466 36.0596H20.5566C20.8249 36.0177 21.0932 35.9659 21.3616 35.914C21.4349 35.904 21.5166 35.8822 21.5899 35.8621L21.7349 35.8303C21.8066 35.8203 21.8782 35.8002 21.9516 35.7902C22.0132 35.7684 22.0749 35.7567 22.1366 35.7383C23.1699 35.4873 24.1716 35.146 25.1332 34.7427C23.4729 37.013 21.2649 38.8221 18.7166 40C19.9066 39.9163 21.0932 39.7206 22.2399 39.3876C26.3902 38.1626 29.8956 35.3506 32.0015 31.5569C31.5762 33.9584 30.6274 36.2359 29.2232 38.2264C30.2244 37.5634 31.1494 36.7913 31.9815 35.924C34.2937 33.5005 35.8117 30.4246 36.3315 27.1095C36.6815 28.7493 36.7848 30.4392 36.6315 32.1074C44.0881 21.6649 37.2498 10.8374 34.3881 7.98628C34.3781 7.96453 34.3681 7.95449 34.3681 7.93441C34.3581 7.94445 34.3581 7.94445 34.3581 7.95449C34.3581 7.94445 34.3581 7.94445 34.3465 7.93441C34.3465 8.05823 34.3365 8.18205 34.3265 8.30754C34.2978 8.53983 34.2634 8.77137 34.2231 9.00193C34.1731 9.22948 34.1098 9.45871 34.0481 9.68795C33.9748 9.90546 33.8931 10.133 33.7981 10.3505C33.7037 10.5654 33.6009 10.7764 33.4898 10.983C33.2592 11.3896 32.9932 11.7748 32.6948 12.1342C32.5398 12.3199 32.3748 12.4856 32.2082 12.6529C32.1107 12.7423 32.0107 12.8288 31.9082 12.9122L31.6715 13.1197C31.4871 13.2658 31.2939 13.4005 31.0932 13.523C30.8957 13.6506 30.6921 13.7685 30.4832 13.876C30.2665 13.9798 30.0498 14.0735 29.8332 14.1672C29.3919 14.3357 28.9353 14.4606 28.4699 14.5403C28.2315 14.5821 27.9949 14.6022 27.7665 14.6239C27.6018 14.6356 27.4367 14.6423 27.2715 14.644C27.0366 14.6408 26.8019 14.6268 26.5682 14.6022C26.3322 14.5836 26.0978 14.5489 25.8665 14.4985C25.6323 14.4558 25.4012 14.3971 25.1749 14.3228H25.1632C25.3915 14.301 25.6182 14.2809 25.8465 14.2391C26.3117 14.1582 26.7682 14.0332 27.2099 13.866C27.4365 13.7823 27.6532 13.6786 27.8599 13.5748C28.0765 13.4711 28.2732 13.3573 28.4798 13.2335C28.6765 13.0996 28.8715 12.9641 29.0582 12.8185C29.2448 12.673 29.4198 12.5174 29.5848 12.3517C29.7598 12.1961 29.9148 12.0204 30.0698 11.8431C30.2248 11.6573 30.3698 11.4699 30.5032 11.2842C30.5248 11.2524 30.5465 11.2106 30.5665 11.1805C30.6698 11.0131 30.7732 10.8475 30.8665 10.6818C31.0942 10.2691 31.2807 9.83473 31.4232 9.38509C31.4965 9.16757 31.5482 8.94002 31.5998 8.71078C31.6415 8.47319 31.6832 8.24563 31.7032 8.0164C31.7232 7.7788 31.7448 7.53953 31.7448 7.31197C31.7448 7.14465 31.7332 6.979 31.7232 6.81335C31.7026 6.58108 31.6748 6.34951 31.6398 6.11897C31.5997 5.88521 31.5485 5.65348 31.4865 5.42458C31.4132 5.20706 31.3415 4.97783 31.2582 4.76031C31.1748 4.54279 31.0732 4.32527 30.9698 4.11779C30.8548 3.91032 30.7415 3.70284 30.6182 3.5054C30.4862 3.31156 30.3484 3.12183 30.2048 2.9365C30.0498 2.75914 29.8948 2.58178 29.7298 2.40609C29.6429 2.31707 29.5534 2.23059 29.4615 2.14674C28.9949 1.78365 28.5115 1.44232 28.0249 1.1311C27.9581 1.09239 27.8891 1.05775 27.8182 1.02736C27.5118 0.839009 27.1816 0.691023 26.8365 0.590647Z" fill="#9C9C9C"/>
</svg>
