<svg width="279" height="99" viewBox="0 0 279 99" fill="none" xmlns="http://www.w3.org/2000/svg">
<path d="M71.3587 57.8595L75.8198 56.8044L75.1303 53.8959L71.5392 54.745C71.5392 54.6964 71.5416 54.6501 71.5416 54.6015C71.5416 48.9627 69.9821 43.8237 67.2517 39.4436C69.5379 31.4562 65.2617 21 65.2617 21C65.2617 21 57.4295 24.3413 52.973 28.3835C48.4401 27.0161 43.3266 26.5765 37.9099 26.5765C32.4654 26.5765 27.3242 26.956 22.7751 28.3211C18.3094 24.3066 10.5581 21 10.5581 21C10.5581 21 6.27972 31.4587 8.56808 39.446C5.84005 43.8261 4.27597 48.9651 4.27597 54.6016C4.27597 54.6502 4.28056 54.6966 4.28056 54.7451L0.689486 53.896L0 56.8044L4.45871 57.8595C4.85439 61.3511 5.89099 64.4864 7.45507 67.2514L1.9066 69.4703L3.01487 72.2469L9.11644 69.8059C15.0098 77.6753 25.6974 81.8818 37.9099 81.8818C50.12 81.8818 60.81 77.6753 66.7034 69.8059L72.8049 72.2469L73.9132 69.4703L68.3646 67.2514C69.9288 64.4864 70.9654 61.3511 71.3587 57.8595Z" fill="#003459"/>
<path d="M99.464 63L86.12 39.96H90.6L101.256 58.488L111.944 39.96H116.392L103.048 63H99.464ZM118.95 63V39.96H140.102V43.832H122.822V49.56H136.742V53.4H122.822V59.128H140.102V63H118.95ZM143.418 63V39.928H147.258V59.128H166.458V63H143.418ZM176.771 63V43.832H167.171V39.96H190.211V43.832H180.611V63H176.771ZM211.229 63L204.157 54.552H209.181L215.549 62.104V63H211.229ZM192.605 63V39.992H211.325C212.114 39.992 212.829 40.1947 213.469 40.6C214.13 40.984 214.653 41.5067 215.037 42.168C215.442 42.808 215.645 43.5227 215.645 44.312V50.648C215.645 51.416 215.442 52.1307 215.037 52.792C214.653 53.4533 214.13 53.976 213.469 54.36C212.829 54.744 212.114 54.936 211.325 54.936L196.445 54.968V63H192.605ZM197.021 51.064H211.197C211.346 51.064 211.474 51.0107 211.581 50.904C211.709 50.7973 211.773 50.6587 211.773 50.488V44.408C211.773 44.2587 211.709 44.1307 211.581 44.024C211.474 43.896 211.346 43.832 211.197 43.832H197.021C196.871 43.832 196.733 43.896 196.605 44.024C196.498 44.1307 196.445 44.2587 196.445 44.408V50.488C196.445 50.6587 196.498 50.7973 196.605 50.904C196.733 51.0107 196.871 51.064 197.021 51.064ZM218.755 63V39.96H222.563V63H218.755ZM225.535 63V62.104L234.431 51.48L225.535 40.856V39.96H229.823L236.991 48.44L244.127 39.96H248.415V40.856L239.487 51.48L248.415 62.072V63H244.127L236.959 54.52L229.823 63H225.535Z" fill="#003459"/>
</svg>
