<svg width="38" height="40" viewBox="0 0 38 40" fill="none" xmlns="http://www.w3.org/2000/svg">
<mask id="mask0_34_39" style="mask-type:alpha" maskUnits="userSpaceOnUse" x="0" y="0" width="40" height="40">
<rect x="12.5132" y="0.151855" width="30" height="30" transform="rotate(24.3334 12.5132 0.151855)" fill="#D9D9D9"/>
</mask>
<g mask="url(#mask0_34_39)">
<path d="M14.3825 28.4346C16.916 29.5803 19.4746 29.6684 22.0583 28.699C24.642 27.7296 26.5047 25.9825 27.6464 23.4578C28.7882 20.9331 28.8698 18.3806 27.8913 15.8003C26.9129 13.22 25.1569 11.357 22.6234 10.2113L22.0234 9.93997C21.8329 9.85382 21.6433 9.79097 21.4547 9.75141C21.9739 11.4953 22.1838 13.2764 22.0842 15.0948C21.9846 16.9133 21.5528 18.6672 20.7888 20.3567C20.0248 22.0461 18.993 23.5287 17.6933 24.8044C16.3937 26.0802 14.9177 27.0989 13.2653 27.8608C13.4196 27.9763 13.592 28.0771 13.7825 28.1632L14.3825 28.4346ZM13.3524 30.7125C12.3428 30.2559 11.415 29.682 10.5689 28.9907C9.72279 28.2994 8.97751 27.4994 8.33303 26.5906C10.5681 26.3667 12.5901 25.612 14.399 24.3264C16.2079 23.0409 17.5759 21.3731 18.503 19.323C19.4301 17.2728 19.7789 15.1441 19.5496 12.9369C19.3202 10.7296 18.5515 8.7129 17.2435 6.88671C18.3515 6.77044 19.4445 6.80168 20.5223 6.98044C21.6002 7.15919 22.6439 7.47685 23.6535 7.93341C25.2346 8.6484 26.5852 9.61929 27.7054 10.8461C28.8255 12.0729 29.6682 13.4314 30.2333 14.9216C30.7983 16.4118 31.0676 17.9855 31.041 19.6426C31.0144 21.2997 30.6448 22.916 29.9323 24.4915C29.2198 26.0671 28.2502 27.412 27.0235 28.5264C25.7968 29.6408 24.4374 30.4779 22.9452 31.0378C21.453 31.5977 19.8764 31.8622 18.2154 31.8313C16.5545 31.8004 14.9335 31.4275 13.3524 30.7125Z" fill="#003459"/>
</g>
</svg>
